<?xml version="1.0" encoding="UTF-8"?>
<svg id="Layer_1" xmlns="http://www.w3.org/2000/svg" version="1.1" viewBox="0 0 200 200">
  <!-- Generator: Adobe Illustrator 29.1.0, SVG Export Plug-In . SVG Version: 2.1.0 Build 142)  -->
  <defs>
    <style>
      .st0 {
        fill: #f26e7d;
      }
    </style>
  </defs>
  <path class="st0" d="M160.8,102l-25.5,70.7c-3.1,8.6-12.6,13.1-21.2,10-8.6-3.1-13.1-12.6-10-21.2L156.1,17.3l-36-13c-7.7,21.3-27.1,34.9-48.3,36.2l4.1-11.4c4.1-11.3-1.8-23.7-13-27.8-11.3-4.1-23.7,1.8-27.8,13-4.1,11.3,1.8,23.7,13,27.8,5.4,2,10.9,3.1,16.4,3.4l-20.5,56.7h5.4l20.4-56.6c13.9-.3,27.3-5.6,37.8-14.6.7,3,.5,6.1-.6,9.2l-39.6,109.9c-5.9,19.4,4.4,40.2,23.6,47.2,19.9,7.2,41.8-3.1,49-23l26.1-72.4h-5.5ZM66.3,40.5c-5.5-.2-11-1.3-16.5-3.2h0c-8.6-3.1-13.1-12.6-10-21.2,3.1-8.6,12.6-13.1,21.2-10,8.6,3.1,13.1,12.6,10,21.2l-4.8,13.2Z"/>
</svg>